<svg xmlns="http://www.w3.org/2000/svg" width="104" height="109" fill="none" viewBox="0 0 104 109">
  <g clip-path="url(#a)">
    <path fill="#000" d="M24.66.094c-1.17.11-3.17.468-4.388.8C10.774 3.457 3.299 11.292.853 21.247a35.937 35.937 0 0 0-.772 4.768C.032 26.68 0 36.711 0 54.508c0 29.873-.016 28.63.447 31.295 1.275 7.281 5.249 13.77 11.034 18.037 4.046 2.98 8.596 4.675 13.625 5.075 1.739.136 53.885.076 54.844-.068 4.68-.699 8.198-2.027 11.733-4.42 1.568-1.064 2.624-1.958 4.135-3.517 2.6-2.657 4.453-5.424 5.866-8.796 1.089-2.572 1.715-5 2.17-8.32.138-1.005.195-55.658.065-57.48-.366-4.982-1.828-9.521-4.396-13.583C95.436 6.259 89.107 1.865 81.868.468 79.324-.017 80.543 0 51.846.008c-14.503.01-26.74.052-27.187.087Zm54.478 9.358c7.531.971 13.633 6.6 15.478 14.264.56 2.333.528.247.528 30.827 0 24.32-.017 27.744-.122 28.63a19.662 19.662 0 0 1-3.437 8.915c-.78 1.107-2.665 3.083-3.721 3.9a17.805 17.805 0 0 1-8.507 3.602c-.845.11-4.111.128-27.316.128-29.177 0-27.187.034-29.413-.553-7.337-1.942-12.764-8.431-13.61-16.3-.064-.578-.08-9.069-.064-28.833l.024-28.017.228-1.175c1.316-6.906 5.882-12.373 12.138-14.536 1.073-.366 2.803-.775 3.762-.877.74-.085 53.39-.051 54.032.025Z"/>
    <path fill="#000" d="M79.503 18.258c-2.259.553-3.99 2.316-4.542 4.658-.187.791-.17 2.171.033 3.006.893 3.678 4.737 5.671 8.084 4.198.902-.392 2.056-1.363 2.568-2.155 1.421-2.197 1.405-5.092-.05-7.23a5.974 5.974 0 0 0-2.94-2.282c-.61-.221-.862-.255-1.69-.28-.634-.026-1.146.008-1.463.085Zm-29.169 9.213c-6.386.528-12.138 3.27-16.567 7.92-4.095 4.283-6.605 9.665-7.418 15.873-.195 1.507-.195 5.075.009 6.6.576 4.436 1.876 8.09 4.151 11.666 3.543 5.578 8.832 9.563 14.926 11.24a25.188 25.188 0 0 0 11.838.333c4.973-1.073 9.425-3.594 13.049-7.4 4.12-4.318 6.622-9.648 7.41-15.797.179-1.422.203-5.024.04-6.386-.763-6.336-3.282-11.778-7.49-16.18-4.063-4.25-9.255-6.906-15.073-7.707-.926-.136-4.013-.23-4.875-.162Zm3.25 8.303c3.478.307 6.931 1.763 9.71 4.08.918.774 2.43 2.41 3.136 3.405 1.82 2.555 2.933 5.348 3.42 8.559.196 1.311.196 4.147 0 5.484-1.234 8.268-7.287 14.613-15.177 15.907-1.243.204-4.054.204-5.257 0-5.947-1.005-10.895-4.812-13.503-10.39-2.698-5.756-2.422-12.517.739-18.001 1.438-2.487 3.737-4.897 6.11-6.404 3.242-2.052 7.06-2.98 10.822-2.64Z"/>
  </g>
  <defs>
    <clipPath id="a">
      <path fill="#fff" d="M0 0h104v109H0z"/>
    </clipPath>
  </defs>
</svg>
